<?xml version="1.0" encoding="utf-8"?>
<!-- Generator: Adobe Illustrator 19.2.1, SVG Export Plug-In . SVG Version: 6.00 Build 0)  -->
<svg version="1.1" id="Baxter_of_California" xmlns="http://www.w3.org/2000/svg" xmlns:xlink="http://www.w3.org/1999/xlink" x="0px" y="0px"
	 width="400px" height="220px" viewBox="0 0 400 220" style="enable-background:new 0 0 400 220;" xml:space="preserve">
<style type="text/css">
	.st0{fill:none;}
	.st1{fill:#252021;}
	.st2{fill:#040302;}
</style>
<title>Baxter of California</title>
<g>
	<g>
		<g>
			<path class="st0" d="M94.4,41.4c-7.1,2.3-11.2,4.6-17.2,8.8c14.6,9.1,21.9,20.8,21.9,35.2c0,1.7-0.3,3.8-0.7,5.2
				c0.7-0.3,1.3-1,1.8-1.8c0.6-0.9,1.2-1.9,1.8-2.9c2.3-3.9,1.6-8.3,0.1-12.2c-0.5-1.4-1-2.5-2.2-4l2.7,1.4c1.1,2,1.1,2.1,1.5,3
				c0.8,2.2,1,3.2,1.1,5.6c0.1,4.9-2.8,10.1-8.3,15.6c-2.1,6.3-5.7,11.7-11,15.6c-3.3,2.4-7.5,4.7-15.3,5.5l-2.7-1.7
				c4.3,0,8.9-0.8,12.8-2.8c6.2-3.1,10.8-8.2,13.4-14.4c-5,2.6-9.3,2.5-11.8,2.5c-6.6,0-11.9-2.2-16-6.6c-4-4.4-6.4-9.8-6.4-17
				c0-6.3,1.6-11.7,6.1-17.8c1.1-1.4,4.5-5.5,8.1-8.3c-5.4-3-11.2-4.4-17.3-4.4c-14,0-26.2,5.5-36.7,16.5
				C9.4,73.6,4.2,86.1,4.2,100.2c0,12.6,4.2,22.6,12.6,30.2c8.1,7.1,18.5,10.7,31.2,10.7c6.1,0,12.6-1.7,19.5-5.1
				c6.9-3.4,13.1-8,18.6-13.7c5.3-5.4,9.7-12.1,13.3-20c0.4-0.8,2.3-5.7,5.7-14.5c3.8-9.9,9.4-18.7,16.8-26.3c6.8-7,14-12,21.6-15
				c-8.5-5.4-18.9-7.8-27.8-7.8C108.3,38.5,101.7,39,94.4,41.4z"/>
			<path class="st0" d="M66,61.9c-2.9,4.3-4.3,9.1-4.3,14.4c0,6.6,1.9,11.9,5.6,15.9c3.7,4,8.6,6,14.8,6c4.9,0,10-1.4,12.9-5
				c1.8-2.3,2.3-6.2,2.3-7.8c0-14.8-6.8-26.2-21.2-34.1C69.1,56.7,66,61.9,66,61.9z"/>
			<path class="st0" d="M132,86.7c-1.2,0-1.8,0.5-1.8,1.4c0,1.4,1,2.1,3.1,2.1c1.1,0,2.3-0.2,3.5-0.6
				C135.1,87.7,133.5,86.7,132,86.7z"/>
			<path class="st0" d="M336.4,102c0-2.2-1-3.2-3-3.2c-4.5,0-10.4,7.3-17.8,21.8c3.8,0,8.2-2.4,13.4-7.3
				C333.9,108.7,336.4,104.9,336.4,102z"/>
			<path class="st0" d="M360.1,95.8c-1.4,0-2.7,1.1-4,3.2c-1.2,2.1-1.8,3.9-1.8,5.4c0,1.6,1,3.2,1.8,2.5c3-3,5.3-8,5.3-9.8
				C361.4,96.2,361,95.8,360.1,95.8z"/>
			<path class="st0" d="M100.5,135.8c0,2.9,2.1,4.3,6.4,4.4c5.9,0.1,11.8-2.9,17.7-9c0.9-1.2,2.3-3,4-5.3c1.8-2.3,3.1-4,3.9-5.1
				c-8,0-14.9,1-20.6,2.9C104.3,126.3,100.5,130.3,100.5,135.8z"/>
			<path class="st0" d="M188.7,99.4c-5.5,0-11.3,4.8-17.3,14.5c-5.4,8.6-8,15.5-8,20.6c0,3.1,0.9,4.7,2.8,4.7
				c3.8,0,7.5-3.1,11.1-9.3c9.6-16.3,14.4-25.4,14.4-27.1C191.6,100.6,190.6,99.4,188.7,99.4z"/>
			<path class="st1" d="M365.2,137.9c-2.4,0-3.7-1.3-3.7-3.8c0-0.8,0.9-2.8,2.7-5.8l11.1-19c2-3.4,3-5.7,3-6.9
				c0-1.5-0.5-2.8-1.4-3.9c-0.9-1.1-2.1-1.6-3.5-1.6c-1.8,0-3.8,0.9-6.1,2.7c-2.8,2.2-5.7,4.5-8.7,7.1c3.3-3.9,4.8-7.3,4.9-9.7
				c0.1-1.2-1.1-2.8-3.3-2.8c-2.3,0-4.2,1.8-5.4,3.6c-1.1,1.7-2.2,3.6-2.4,5.6c-0.2,1.5,0,3.7,1,4.9c0.4,0.5,1,0.8,1.6,1.1
				c0,0-4.4,5.8-4.8,6.3c-2,2.4-4.2,4.7-6.5,6.8c-1.4,1.4-2.9,2.7-4.3,4c-9.6,8.5-17.5,12.7-23.7,12.7c-2.5,0-3.8-1.7-3.8-5.2
				c0-2.9,0.8-6.2,2.5-9.9c4.4,0,9.9-1.5,16.3-4.5c8.5-4,12.8-8.9,12.8-14.8c0-2.2-0.8-4-2.4-5.5c-1.6-1.5-3.5-2.3-5.6-2.3
				c-6.5,0-13.2,2.8-20.2,8.5c-3.5,2.9-6.3,6-8.3,9.4c-3.9,5.2-5.9,7.7-8,10.4c-2.3,2.9-5.1,5.7-8.4,8.3c-4.2,3.3-7,4.6-9.7,4.6
				c-0.8,0-2.8-0.5-3.5-1.7c-0.8-1.2-0.9-2.2-0.9-3.4c0-1.4,1-3.9,3.1-7.5l14.7-25.6h9.4l2-2.1h-10.6l12.6-22.1l0.1-2.9
				c-4.1,6.4-7.4,11-9.7,13.8c-3.8,4.5-7.9,8.2-12.6,11.1h-11.3l-2.3,2.1h10.3l-7.5,15.4c-3.3,3.7-7,7.4-11,11
				c-8.6,7.6-15.2,11.4-20,11.4c-5.2,0-7.8-7.9-7.8-23.7c0.4-1.1,2.7-3.1,6.9-6.1c4.8-3.4,8.7-5.1,11.8-5.1c2.1,0,4.6,1.1,7.5,3.4
				c1.5-2.4,2.3-4.3,2.3-5.5c0-2.5-1.8-3.8-5.5-3.8c-2.8,0-6.4,1.5-10.9,4.5c-2.6,1.8-6.7,5.1-12.1,9.9l-0.3-18.4l-2.7,4.5H228
				c-2.2,0-3.2,2-3.2,6.1c0,0.8,0,2,0.1,3.7c-4.6,5.6-10.6,12.2-17,18.5c-9.2,9.1-15.4,13.7-18.5,13.7c-2.1,0-3.1-0.9-3.1-2.8
				c0-1.3,0.8-3.5,2.4-6.5l18.5-34.7l-4.7,3.8c-0.4,0-1.4-0.1-3-0.4c-1.6-0.3-2.6-0.4-3-0.4c-0.9,0-1.8,0.7-3,2.1
				c-1.5-2.3-3.9-3.4-7.2-3.4c-7.8,0-14.7,2.8-20.7,8.4l0,0c-5.6,5-11,7.7-16.4,9.6c0-9.8-2.5-17.6-7.3-23.5
				c6.2-3.7,10.6-6.9,13.2-9.8c3.8-4.1,5.7-9,5.7-14.8c0-4.2-1.4-8.1-4.2-11.8c-0.7-1-3.2-3.9-7.5-8.6c8.6-3.6,15.7-5.4,21.4-5.4
				c5.4,0,11,1.2,16.7,3.5c7.2,3.1,10.9,6.9,10.9,11.5c0,1.8-1.1,3.6-3.4,5.4c-2.3,1.8-5.2,3-8.6,3.7l3.2,0.7
				c3.8-1.2,5.1-1.9,7.2-3.5c2.6-2,4-3.9,4-6.4c0-5.2-3.9-9.4-11.6-12.7c-6.2-2.7-12.3-4.1-18.2-4.1c-5.6,0-10.1,0.6-15,1.9
				c-4.2,1.2-7.2,2.7-9.3,3.4c-1.2-0.6-2.6-1.5-5-2.5c-2.5-1.1-4.8-1.8-6-2.3c-5.9-2-12.6-3-19.9-3c-9.6,0-17.9,1.3-24.8,4
				c-8.1,3.1-15,8.3-15,8.3c-7.3-3.5-13.5-4.5-19-4.5c-14.8,0-27.5,5.6-38.2,16.7c-10.7,11.1-16,24.1-16,39c0,13.2,4.3,23.7,13,31.5
				C23.9,139.2,34.7,143,48,143c15.7,0,28.8-3.3,39.3-9.9c8.8-5.5,17.3-14.8,25.7-27.9c2.3-3.7,4.9-10.3,7.7-19.9
				c2.6-9.2,5.4-15.3,7.7-18.7c6.6-9.8,13.2-16.3,17.1-18.4c4.1,2.2,6.9,8.2,6.1,18.4c-0.5,6.6-4.1,13.8-12.3,21.4
				c-2.6-2.2-5-3.4-7.4-3.4c-3.3,0-4.9,1.1-4.9,3.4c0,1.1,0.7,2.1,2.1,3.1c0,0,3.2,2.5,8,1.1c0.6,3.2,0.9,6.3,0.9,9.4
				c0,8.3-1.7,14-5.1,17c-7.5,0-14.4,1-20.6,3.1c-9.2,3-13.8,7.7-13.8,14.2c0,4.7,3.5,7.1,10.4,7.2c9,0.1,17-2.1,24.1-6.6
				c7.1-4.5,12.2-10.8,15.4-19c4.5-1.9,8.8-4.2,12.7-7c-4.1,5.4-6.1,11-6.1,16.9c0,9.2,3.1,13.8,9.4,13.8c4.9,0,9.3-2.7,13.4-8.2
				c2.5,5.4,6.1,8.2,10.7,8.2c6.8,0,18.9-10.6,36.4-31.9c0.1,1.2,0.2,2.6,0.3,4.1c0.4,5.2,0.6,8.7,0.6,10.6
				c-1.2,2.1-2.9,4.2-4.9,6.3c-3.1,3.4-5.6,5.1-7.6,5.1c-1.7,0-3.8-1.4-6.2-4.1c-2.3,1.8-3.4,3.5-3.4,5.1c0,3.2,1.7,4.8,5.1,4.8
				c3.9,0,9.9-4.6,17.8-13.8c3.3,9.2,7.5,13.8,12.7,13.8c9.2,0,20.2-7,33-20.9l-1,2c-2,4-3,7.3-3,9.7c0,2.5,0.7,4.7,2.2,6.5
				c1.5,1.8,3.2,2.7,5.3,2.7c8.7,0,16.9-5,24.6-14.9c1.4-1.8,2.6-3.4,3.8-5c-0.6,2.4-1,4.8-1,7.4c0,3.6,1.1,6.5,3.5,8.9
				c2.3,2.4,5.2,3.6,8.8,3.6c6.8,0,15.1-4.6,25.1-13.7c7.3-6.8,12.9-12.9,16.2-18.3c1.4-0.1,2.3-0.6,4-1.7c1.9-1.2,2.9-2.2,3.6-2.2
				c0.4,0,0.6,0.3,0.6,1c0,0.9-2,4.7-5.9,11.3c-3.9,6.6-5.5,11-5.9,13.3c-1,6.5,2.6,10.3,7.5,10.3c7.3,0,14.3-4,21.8-11.9
				c3.9-4,8.2-9,14.7-18.9l0.3-3C383.4,127.8,372.6,137.9,365.2,137.9z M333.4,98.8c2,0,3,1.1,3,3.2c0,2.9-2.4,6.7-7.3,11.3
				c-5.2,4.9-9.6,7.3-13.4,7.3C323,106,328.9,98.8,333.4,98.8z M76,51.2c14.4,8,21.2,19.4,21.2,34.1c0,1.6-0.5,5.5-2.3,7.8
				c-2.8,3.6-8,5-12.9,5c-6.1,0-11-2-14.8-6c-3.7-4-5.6-9.3-5.6-15.9c0-5.3,1.4-10.1,4.3-14.4C66,61.9,69.1,56.7,76,51.2z
				 M121.9,61.3c-7.4,7.7-13.1,16.4-16.8,26.3c-3.4,8.9-5.3,13.7-5.7,14.5c-3.6,8-8,14.6-13.3,20c-5.5,5.7-11.7,10.3-18.6,13.7
				c-6.9,3.4-13.4,5.1-19.5,5.1c-12.8,0-23.2-3.6-31.2-10.7c-8.4-7.6-12.6-17.6-12.6-30.2c0-14.1,5.3-26.6,15.8-37.6
				C30.4,51.5,42.7,46,56.7,46c6.1,0,11.9,1.5,17.3,4.4c-3.6,2.7-7,6.9-8.1,8.3c-4.5,6.1-6.1,11.5-6.1,17.8c0,7.1,2.3,12.5,6.4,17
				c4,4.4,9.3,6.6,16,6.6c2.5,0,6.9,0.1,11.8-2.5c-2.6,6.2-7.1,11.3-13.4,14.4c-4,2-8.5,2.8-12.8,2.8l2.7,1.7c7.8-0.8,12-3,15.3-5.5
				c5.3-3.9,8.9-9.3,11-15.6c5.5-5.5,8.4-10.7,8.3-15.6c0-2.4-0.3-3.5-1.1-5.6c-0.3-0.9-0.4-1.1-1.5-3l-2.7-1.4
				c1.2,1.4,1.7,2.6,2.2,4c1.5,3.9,2.2,8.2-0.1,12.2c-0.5,0.9-1.2,2-1.8,2.9c-0.5,0.8-1.1,1.5-1.8,1.8c0.4-1.4,0.7-3.5,0.7-5.2
				c0-14.4-7.3-26.1-21.9-35.2c6-4.2,10.1-6.5,17.2-8.8c7.3-2.3,13.9-2.9,21.2-2.9c8.9,0,19.4,2.4,27.8,7.8
				C135.9,49.3,128.7,54.3,121.9,61.3z M133.2,90.2c-2,0-3.1-0.7-3.1-2.1c0-0.9,0.6-1.4,1.8-1.4c1.5,0,3.1,1,4.7,2.9
				C135.5,90,134.3,90.2,133.2,90.2z M128.9,126.2c-1.5,1.9-2.3,2.8-4.3,5c-5.9,6.1-11.8,9.1-17.7,9c-4.3-0.1-6.4-1.6-6.4-4.4
				c0-5.5,3.8-9.5,11.4-12.1c5.7-1.9,12.6-2.9,20.6-2.9C131.7,122.5,130.7,123.9,128.9,126.2z M177.2,129.9
				c-3.7,6.2-7.4,9.3-11.1,9.3c-1.9,0-2.8-1.6-2.8-4.7c0-5.1,2.7-11.9,8-20.6c6-9.7,11.8-14.5,17.3-14.5c2,0,3,1.1,3,3.4
				C191.6,104.5,186.8,113.5,177.2,129.9z M356.1,106.9c-0.7,0.7-1.8-0.9-1.8-2.5c0-1.5,0.6-3.3,1.8-5.4c1.2-2.1,2.5-3.2,4-3.2
				c0.8,0,1.3,0.4,1.3,1.3C361.4,98.8,359.1,103.8,356.1,106.9z"/>
		</g>
		<g>
			<path class="st1" d="M110.2,183.4c-5.2,0-8.6-3.7-8.6-9c0-6.4,4.4-9,8.7-9c4.8,0,8.6,3.3,8.6,8.9
				C119,179.3,115.9,183.4,110.2,183.4z M110.3,167.1c-4.3,0-6.2,3.3-6.2,7.2c0,3.6,1.8,7.2,6.2,7.2c4.6,0,6.2-3.8,6.1-7.4
				C116.4,170,114.3,167.1,110.3,167.1z"/>
			<path class="st1" d="M129.7,174.8v8.1h-2.3v-17.2h11v2h-8.8v5.1h8.1v2H129.7z"/>
			<path class="st1" d="M173.2,176.7c-0.7,3.3-3.5,6.7-8.5,6.7c-5.7,0-8.4-4.3-8.4-9c0-4.9,2.8-9,8.7-9c6,0,7.4,4.1,7.8,5.3
				l-2.3,0.5c-0.2-0.6-0.4-1.2-1-1.9c-0.8-1-2.3-2-4.5-2c-1.8,0-3.6,0.7-4.7,2.2c-1.1,1.4-1.4,3.2-1.4,4.9c0,4.3,2.2,7.3,6.1,7.3
				c2.6,0,5.2-1.4,5.7-5.1L173.2,176.7z"/>
			<path class="st1" d="M188.9,177.7h-6.6l-1.9,5.3H178l6.6-17.2h2.4l6.3,17.2h-2.4L188.9,177.7z M188.2,175.7l-2.5-7.2l-2.6,7.2
				H188.2z"/>
			<path class="st1" d="M202.3,180.9h8.3v2H200v-17.2h2.3V180.9z"/>
			<path class="st1" d="M219.9,165.7v17.2h-2.3v-17.2H219.9z"/>
			<path class="st1" d="M231.6,174.8v8.1h-2.3v-17.2h11v2h-8.8v5.1h8.1v2H231.6z"/>
			<path class="st1" d="M255.3,183.4c-5.2,0-8.6-3.7-8.6-9c0-6.4,4.4-9,8.7-9c4.8,0,8.6,3.3,8.6,8.9
				C264.1,179.3,261.1,183.4,255.3,183.4z M255.4,167.1c-4.3,0-6.2,3.3-6.2,7.2c0,3.6,1.8,7.2,6.2,7.2c4.6,0,6.2-3.8,6.2-7.4
				C261.6,170,259.4,167.1,255.4,167.1z"/>
			<path class="st1" d="M274.8,175.6v7.3h-2.2v-17.2h6.4c2.4,0,3.8,0,5.1,1c1.3,0.9,1.8,2.4,1.8,4c0,4-3.2,4.6-4.1,4.7l4.8,7.5h-2.7
				l-4.7-7.3H274.8z M274.8,173.7h4.6c0.7,0,1.4,0,2.1-0.2c1.6-0.4,2.2-1.5,2.2-2.8c0-0.4-0.1-1.6-1-2.4c-0.9-0.7-2-0.7-3.3-0.7
				h-4.4V173.7z"/>
			<path class="st1" d="M308.2,165.7v17.2h-2.1l-9.4-14l0.2,14h-2.1v-17.2h2.1l9.3,13.8l-0.1-13.8H308.2z"/>
			<path class="st1" d="M319.9,165.7v17.2h-2.3v-17.2H319.9z"/>
			<path class="st1" d="M337.6,177.7H331l-1.9,5.3h-2.4l6.6-17.2h2.4l6.3,17.2h-2.4L337.6,177.7z M336.9,175.7l-2.5-7.2l-2.6,7.2
				H336.9z"/>
		</g>
		<g>
			<line class="st0" x1="59.6" y1="153.6" x2="383.9" y2="153.6"/>
			<path class="st1" d="M386.2,152.2c-108.1,0-216.2,0-324.3,0l-4.5,2.2l0,0c108.1,0,216.2,0,324.3,0L386.2,152.2z"/>
		</g>
	</g>
	<g>
		<path class="st2" d="M381.3,94.6v4.7h-0.9v-4.7h-2V94h4.9v0.6H381.3z"/>
		<path class="st2" d="M390.5,94v5.3h-0.9l0.1-4.5l-2.1,4.5H387l-2.1-4.4l0.1,4.4h-0.9V94h1.1l2,4.4l2-4.4H390.5z"/>
	</g>
</g>
</svg>
